# AST/ASF file generated using VICON BodyLanguage
# -----------------------------------------------
:version 1.10
:name VICON
:units
  mass 1.0
  length 0.45
  angle deg
:documentation
   .ast/.asf automatically generated from VICON data using
   VICON BodyBuilder and BodyLanguage model FoxedUp or BRILLIANT.MOD
:root
   order TX TY TZ RX RY RZ
   axis XYZ
   position 0 0 0  
   orientation 0 0 0 
:bonedata
  begin
     id 1 
     name lhipjoint
     direction 0.643824 -0.71708 0.266994 
     length 2.52133 
     axis 0 0 0  XYZ
  end
  begin
     id 2 
     name lfemur
     direction 0.34202 -0.939693 0  
     length 7.51824  
     axis 0 0 20  XYZ
    dof rx ry rz
    limits (-160.0 20.0)
           (-70.0 70.0)
           (-60.0 70.0)
  end
  begin
     id 3 
     name ltibia
     direction 0.34202 -0.939693 0   
     length 7.3685   
     axis 0 0 20   XYZ
    dof rx
    limits (-10.0 170.0)
  end
  begin
     id 4 
     name lfoot
     direction 0.105419 -0.289636 0.951314   
     length 2.20972   
     axis -90 7.62852e-016 20   XYZ
    dof rx rz
    limits (-45.0 90.0)
           (-70.0 20.0)
  end
  begin
     id 5 
     name ltoes
     direction 1.53549e-011 -4.21833e-011 1   
     length 1.10139   
     axis -90 7.62852e-016 20   XYZ
    dof rx
    limits (-90.0 20.0)
  end
  begin
     id 6 
     name rhipjoint
     direction -0.608823 -0.743445 0.276811   
     length 2.43192  
     axis 0 0 0  XYZ 
  end
  begin
     id 7 
     name rfemur
     direction -0.34202 -0.939693 0   
     length 7.69715   
     axis 0 0 -20   XYZ
    dof rx ry rz
    limits (-160.0 20.0)
           (-70.0 70.0)
           (-70.0 60.0)
  end
  begin
     id 8 
     name rtibia
     direction -0.34202 -0.939693 0   
     length 7.44924   
     axis 0 0 -20   XYZ
    dof rx
    limits (-10.0 170.0)
 end
 begin
     id 9 
     name rfoot
     direction -0.103614 -0.284677 0.953007   
     length 2.22623  
     axis -90 -7.62852e-016 -20   XYZ
    dof rx rz
    limits (-45.0 90.0)
           (-20.0 70.0)
  end
  begin
     id 10 
     name rtoes
     direction -1.53537e-011 -4.22026e-011 1   
     length 1.11   
     axis -90 -7.62852e-016 -20   XYZ
    dof rx
    limits (-90.0 20.0)
  end
  begin
     id 11 
     name lowerback
     direction -0.0101212 0.99662 -0.0815298   
     length 2.08277   
     axis 0 0 0   XYZ
    dof rx ry rz
    limits (-20.0 45.0)
           (-30.0 30.0)
           (-30.0 30.0)
  end
  begin
     id 12 
     name upperback
     direction 0.024314 0.999591 -0.0150645   
     length 2.08524   
     axis 0 0 0   XYZ
    dof rx ry rz
    limits (-20.0 45.0)
           (-30.0 30.0)
           (-30.0 30.0)
  end
  begin
     id 13 
     name thorax
     direction 0.0285959 0.999323 0.0231357   
     length 2.09645   
     axis 0 0 0   XYZ
    dof rx ry rz
    limits (-20.0 45.0)
           (-30.0 30.0)
           (-30.0 30.0)
  end
  begin
     id 14 
     name lowerneck
     direction -0.065512 0.979301 0.191515   
     length 1.63798   
     axis 0 0 0   XYZ
    dof rx ry rz
    limits (-20.0 45.0)
           (-30.0 30.0)
           (-30.0 30.0)
  end
  begin
     id 15 
     name upperneck
     direction 0.0498479 0.98191 -0.182667   
     length 1.68731   
     axis 0 0 0   XYZ
    dof rx ry rz
    limits (-20.0 45.0)
           (-30.0 30.0)
           (-30.0 30.0)
  end
  begin
     id 16
     name head
     direction 0.0230358 0.996257 -0.0833175  
     length 1.69785  
     axis 0 0 0   XYZ
    dof rx ry rz
    limits (-20.0 45.0)
           (-30.0 30.0)
           (-30.0 30.0)
  end
  begin
     id 17 
     name lclavicle
     direction 0.967963 0.201165 -0.150269  
     length 3.63976  
     axis 0 0 0   XYZ
    dof ry rz
    limits (-20.0 10.0)
           (0.0 20.0)
  end
  begin
     id 18 
     name lhumerus
     direction 1 -4.48954e-011 -2.92837e-028   
     length 5.32462   
     axis 180 -30 -90   XYZ
    dof rx ry rz
    limits (-60.0 90.0)
           (-90.0 90.0)
           (-90.0 90.0)
  end
  begin
     id 19
     name lradius
     direction 1 -4.48958e-011 -6.39511e-027   
     length 3.48402   
     axis 180 -30 -90   XYZ
    dof rx
    limits (-10.0 170.0)
  end
  begin
     id 20
     name lwrist
     direction 1 -4.48975e-011 -1.1413e-026   
     length 1.74201   
     axis 6.88575e-015 90 90   XYZ
    dof ry
    limits (-180.0 0.0)
 end
  begin
     id 21 
     name lhand
     direction 1 -4.48899e-011 -2.28192e-026   
     length 0.572476   
     axis 1.45643e-014 90 90   XYZ
    dof rx rz
    limits (-90.0 90.0)
           (-45.0 45.0)
  end
  begin
     id 22 
     name lfingers
     direction 1 -4.49155e-011 -4.5684e-026   
     length 0.461545   
     axis 2.91283e-014 90 90   XYZ
    dof rx
    limits (0.0 90.0)
  end
  begin
     id 23
     name lthumb
     direction 0.707107 -6.34943e-011 0.707107   
     length 0.662688   
     axis -90 45 -2.25915e-014   XYZ
    dof rx rz
    limits (-45.0 45.0)
           (-45.0 45.0)
  end
  begin
     id 24 
     name rclavicle
     direction -0.964103 0.264019 -0.0282629   
     length 3.54491  
     axis 0 0 0   XYZ 
    dof ry rz
    limits (-10.0 20.0)
           (-20.0 0.0)
  end
  begin
     id 25 
     name rhumerus
     direction -1 -4.48964e-011 -2.45032e-027  
     length 5.33589   
     axis 180 30 90   XYZ
    dof rx ry rz
    limits (-90.0 60.0)
           (-90.0 90.0)
           (-90.0 90.0)
  end
  begin
     id 26 
     name rradius
     direction -1 -4.48987e-011 -1.55093e-027   
     length 3.64134   
     axis 180 30 90   XYZ
    dof rx
    limits (-10.0 170.0)
  end
  begin
     id 27 
     name rwrist
     direction -1 -4.4897e-011 -1.14128e-026   
     length 1.82067   
     axis 6.88575e-015 -90 -90   XYZ
    dof ry
    limits (-180.0 0.0)
  end
  begin
     id 28
     name rhand
     direction -1 -4.49021e-011 -2.28301e-026   
     length 0.734811   
     axis 1.45643e-014 -90 -90   XYZ
    dof rx rz
    limits (-90.0 90.0)
           (-45.0 45.0)
  end
  begin
     id 29
     name rfingers
     direction -1 -4.48862e-011 -4.56319e-026   
     length 0.592424   
     axis 2.91283e-014 -90 -90   XYZ
    dof rx
    limits (0.0 90.0)
  end
  begin
     id 30
     name rthumb
     direction -0.707107 -6.34978e-011 0.707107   
     length 0.850605   
     axis -90 -45 2.25915e-014   XYZ
    dof rx rz
    limits (-45.0 45.0)
           (-45.0 45.0)
  end
:hierarchy
  begin
    root lhipjoint rhipjoint lowerback
    lhipjoint lfemur
    lfemur ltibia
    ltibia lfoot
    lfoot ltoes
    rhipjoint rfemur
    rfemur rtibia
    rtibia rfoot
    rfoot rtoes
    lowerback upperback
    upperback thorax
    thorax lowerneck lclavicle rclavicle
    lowerneck upperneck
    upperneck head
    lclavicle lhumerus
    lhumerus lradius
    lradius lwrist
    lwrist lhand lthumb
    lhand lfingers
    rclavicle rhumerus
    rhumerus rradius
    rradius rwrist
    rwrist rhand rthumb
    rhand rfingers
  end

#!OML:ASF F:\VICON\USERDATA\INSTALL\rory3\rory3.ASF
:FULLY-SPECIFIED
:DEGREES
307
root 0.634111 17.7625 2.52817 45.2885 74.5659 33.8987
lowerback 10.9777 -0.423175 1.97312
upperback 6.89641 0.125936 8.13946
thorax 1.06595 0.153166 7.46397
lowerneck -9.68805 -11.5291 -10.0368
upperneck 30.9982 -15.2285 6.02096
head 13.3165 -6.80439 1.81518
rclavicle -9.54166e-015 3.18055e-014
rhumerus 12.6281 -20.1062 -85.3208
rradius 34.2773
rwrist -17.2342
rhand -32.9423 -26.9083
rfingers 7.12502
rthumb -6.15852 -56.7988
lclavicle -9.54166e-015 3.18055e-014
lhumerus -14.2495 -49.7991 98.3872
lradius 68.9579
lwrist 55.6012
lhand -12.0521 52.7955
lfingers 7.12502
lthumb 14.0068 82.3036
rfemur -36.7036 -10.7657 8.65451
rtibia 32.3674
rfoot -8.73247 -10.7716
rtoes 16.9474
lfemur -19.7717 -8.19041 -17.3168
ltibia 28.9708
lfoot -9.33166 -10.8087
ltoes -23.9929
308
root 0.611933 17.7498 2.47443 45.6573 74.6521 34.4275
lowerback 10.9272 -0.191736 2.02143
upperback 6.91568 0.438243 8.25204
thorax 1.07777 0.311677 7.52675
lowerneck -9.42208 -11.802 -10.274
upperneck 30.8357 -15.5917 6.09962
head 13.2626 -6.98558 1.83318
rclavicle -3.18055e-015 1.27222e-014
rhumerus 12.8844 -18.757 -85.8222
rradius 34.0574
rwrist -17.3681
rhand -32.2545 -25.92
rfingers 7.12502
rthumb -5.49442 -55.8288
lclavicle -3.18055e-015 1.27222e-014
lhumerus -14.9788 -48.5624 98.3305
lradius 68.7669
lwrist 56.3381
lhand -12.4226 52.0961
lfingers 7.12502
lthumb 13.6497 81.6286
rfemur -36.6766 -10.9401 8.39585
rtibia 32.4723
rfoot -8.56297 -10.6176
rtoes 16.7365
lfemur -19.5725 -8.4581 -17.5126
ltibia 28.7661
lfoot -9.63137 -11.0841
ltoes -22.9412
309
root 0.591211 17.7358 2.42258 45.6126 74.6684 34.5456
lowerback 10.927 0.167628 2.06016
upperback 6.91593 0.922969 8.3842
thorax 1.02064 0.55678 7.59788
lowerneck -9.12497 -12.1231 -10.4182
upperneck 30.7311 -16.0532 6.20768
head 13.2321 -7.19229 1.83342
rclavicle 4.77083e-015 4.13472e-014
rhumerus 13.03 -17.6664 -86.1765
rradius 33.9178
rwrist -17.1633
rhand -31.2492 -25.4639
rfingers 7.12502
rthumb -4.52378 -55.3956
lclavicle 4.77083e-015 4.13472e-014
lhumerus -15.7245 -47.4084 98.3179
lradius 68.4334
lwrist 56.6932
lhand -12.8062 50.7378
lfingers 7.12502
lthumb 13.28 80.2947
rfemur -36.6795 -10.8866 8.14271
rtibia 32.6231
rfoot -8.35118 -10.5795
rtoes 15.7886
lfemur -19.3086 -8.4817 -17.7119
ltibia 28.555
lfoot -9.95797 -11.4076
ltoes -22.1274
310
root 0.56906 17.718 2.36448 45.852 74.7995 34.9548
lowerback 10.9047 0.408895 2.13321
upperback 6.94734 1.25803 8.57856
thorax 1.02535 0.728139 7.73429
lowerneck -9.01511 -12.3798 -10.5809
upperneck 30.7027 -16.3621 6.15004
head 13.2425 -7.34818 1.78799
rclavicle -3.65764e-014 8.5875e-014
rhumerus 13.338 -16.1874 -86.4268
rradius 33.5892
rwrist -17.0389
rhand -29.8958 -25.0747
rfingers 7.12502
rthumb -3.2168 -55.0302
lclavicle -3.65764e-014 8.5875e-014
lhumerus -16.3423 -46.0745 98.2196
lradius 68.265
lwrist 57.6006
lhand -13.4205 49.3887
lfingers 7.12502
lthumb 12.6879 78.9833
rfemur -36.6906 -11.0041 7.90883
rtibia 32.8268
rfoot -8.17078 -10.5206
rtoes 14.9568
lfemur -19.0747 -8.65927 -17.9172
ltibia 28.3361
lfoot -10.3527 -11.483
ltoes -21.9848
311
root 0.546063 17.6978 2.30777 46.1625 74.8442 35.3763
lowerback 10.8702 0.710059 2.17944
upperback 6.97239 1.6619 8.6742
thorax 1.0212 0.93278 7.76988
lowerneck -8.92362 -12.6696 -10.5387
upperneck 30.5778 -16.7642 6.11233
head 13.2045 -7.52384 1.70285
rclavicle -4.77083e-015 4.77083e-014
rhumerus 13.7319 -15.0356 -86.9085
rradius 33.18
rwrist -16.4267
rhand -28.702 -24.669
rfingers 7.12502
rthumb -2.06389 -54.6388
lclavicle -4.77083e-015 4.77083e-014
lhumerus -16.9649 -45.0115 97.9901
lradius 68.3494
lwrist 58.9041
lhand -14.4359 48.9531
lfingers 7.12502
lthumb 11.7088 78.6059
rfemur -36.7852 -11.0038 7.60487
rtibia 33.0247
rfoot -8.09467 -10.6129
rtoes 14.5437
lfemur -18.9251 -8.69195 -18.2087
ltibia 28.1301
lfoot -10.7704 -11.4266
ltoes -21.1245
312
root 0.522355 17.6759 2.24455 46.844 74.8555 36.1117
lowerback 10.7747 0.993486 2.14674
upperback 6.96691 2.03182 8.77936
thorax 1.01905 1.11737 7.86584
lowerneck -8.766 -12.9566 -10.6388
upperneck 30.4606 -17.1547 6.13583
head 13.178 -7.70384 1.66781
rclavicle 1.90833e-014 9.54166e-015
rhumerus 14.1567 -13.9319 -87.3374
rradius 32.7775
rwrist -15.72
rhand -27.407 -24.2811
rfingers 7.12502
rthumb -0.813153 -54.2593
lclavicle 1.90833e-014 9.54166e-015
lhumerus -17.5335 -43.8576 97.7922
lradius 68.3417
lwrist 59.7647
lhand -15.5155 48.8122
lfingers 7.12502
lthumb 10.6675 78.5214
rfemur -36.9655 -11.0412 7.19722
rtibia 33.2369
rfoot -7.96645 -10.7895
rtoes 14.5111
lfemur -18.8781 -8.68863 -18.6211
ltibia 27.9449
lfoot -11.1743 -11.297
ltoes -20.3542
313
root 0.503063 17.655 2.17908 47.1824 75.0247 36.4802
lowerback 10.5552 1.23636 2.31093
upperback 7.00159 2.35962 8.95195
thorax 1.13577 1.28655 7.93182
lowerneck -8.6376 -13.2269 -10.7882
upperneck 30.3581 -17.507 6.14984
head 13.1651 -7.8724 1.64072
rclavicle -6.20208e-014 -1.01778e-013
rhumerus 14.606 -12.6988 -87.6331
rradius 32.4654
rwrist -15.4442
rhand -26.0293 -24.1505
rfingers 7.12502
rthumb 0.517466 -54.1297
lclavicle -6.20208e-014 -1.01778e-013
lhumerus -17.9686 -42.7238 97.5102
lradius 68.3688
lwrist 60.3884
lhand -16.1929 48.7927
lfingers 7.12502
lthumb 10.014 78.5345
rfemur -37.1022 -11.0195 6.91878
rtibia 33.457
rfoot -7.95899 -10.9405
rtoes 14.9017
lfemur -18.8328 -8.7525 -18.8817
ltibia 27.7386
lfoot -11.6675 -11.0172
ltoes -19.782
314
root 0.480845 17.6329 2.11565 47.9118 75.1247 37.3221
lowerback 10.5325 1.54322 2.41505
upperback 6.99495 2.77722 9.01862
thorax 1.09161 1.50062 7.90006
lowerneck -8.54169 -13.5649 -10.6633
upperneck 30.287 -17.978 6.06434
head 13.1407 -8.07202 1.51445
rclavicle 2.22639e-014 4.77083e-014
rhumerus 14.9766 -11.8623 -87.9737
rradius 32.2767
rwrist -15.1658
rhand -24.4742 -24.0306
rfingers 7.12502
rthumb 2.01936 -54.0008
lclavicle 2.22639e-014 4.77083e-014
lhumerus -18.5502 -41.8157 97.2322
lradius 68.5278
lwrist 60.8932
lhand -16.6722 48.8441
lfingers 7.12502
lthumb 9.55165 78.6076
rfemur -37.2066 -11.1838 6.54559
rtibia 33.7161
rfoot -7.87007 -10.9423
rtoes 14.8225
lfemur -18.6773 -8.77297 -19.3132
ltibia 27.4404
lfoot -12.0462 -10.7234
ltoes -18.5702
315
root 0.451641 17.6208 2.05057 48.5223 75.2646 38.0915
lowerback 10.7123 1.77332 2.53223
upperback 6.92348 3.11574 9.09225
thorax 0.878834 1.67742 7.86656
lowerneck -8.30414 -13.8328 -10.5726
upperneck 30.1932 -18.3656 6.03522
head 13.0785 -8.23825 1.44058
rclavicle 1.11319e-014 1.27222e-013
rhumerus 15.2211 -10.842 -88.3384
rradius 32.089
rwrist -14.7226
rhand -23.3679 -23.7864
rfingers 7.12502
rthumb 3.08784 -53.7438
lclavicle 1.11319e-014 1.27222e-013
lhumerus -19.2108 -40.6923 96.9831
lradius 68.5695
lwrist 61.244
lhand -16.7327 48.475
lfingers 7.12502
lthumb 9.49326 78.2412
rfemur -37.2731 -11.3924 6.23026
rtibia 33.9593
rfoot -7.64485 -10.9802
rtoes 15.2537
lfemur -18.4367 -8.57343 -19.7423
ltibia 27.0895
lfoot -12.4349 -10.4136
ltoes -18.2365
316
root 0.423684 17.6167 1.98663 49.0019 75.2409 38.7781
lowerback 10.9096 2.06198 2.44519
upperback 6.93741 3.51283 9.20359
thorax 0.727511 1.8769 7.98675
lowerneck -8.09413 -14.1096 -10.6287
upperneck 29.9735 -18.7433 6.04153
head 12.9902 -8.41788 1.4012
rclavicle 4.6118e-014 2.8625e-014
rhumerus 15.5043 -9.90129 -88.6406
rradius 32.0552
rwrist -13.8139
rhand -22.2481 -23.4849
rfingers 7.12502
rthumb 4.1692 -53.4239
lclavicle 4.6118e-014 2.8625e-014
lhumerus -19.6985 -39.5814 96.7575
lradius 68.7663
lwrist 62.3278
lhand -17.8567 48.3601
lfingers 7.12502
lthumb 8.40859 78.1727
rfemur -37.2764 -11.2044 5.63077
rtibia 34.1494
rfoot -7.50326 -11.177
rtoes 17.1154
lfemur -18.103 -8.51547 -20.3056
ltibia 26.7584
lfoot -12.8831 -9.70977
ltoes -18.3061
317
root 0.394765 17.6071 1.92193 48.9337 75.2702 38.9939
lowerback 11.2919 2.36731 2.53272
upperback 6.98112 3.96262 9.31111
thorax 0.509264 2.10951 7.98532
lowerneck -8.14034 -14.429 -10.5001
upperneck 29.9361 -19.1815 5.94776
head 13.0017 -8.60062 1.26783
rclavicle -3.65764e-014 -1.46306e-013
rhumerus 15.8112 -9.11752 -88.9373
rradius 32.1751
rwrist -12.7685
rhand -20.5762 -23.5994
rfingers 7.12502
rthumb 5.7835 -53.5005
lclavicle -3.65764e-014 -1.46306e-013
lhumerus -20.282 -38.6495 96.587
lradius 69.2498
lwrist 64.2699
lhand -20.2172 48.9703
lfingers 7.12502
lthumb 6.13011 78.8616
rfemur -37.1104 -10.8844 5.15575
rtibia 34.2316
rfoot -7.57751 -11.4461
rtoes 18.463
lfemur -17.7327 -8.20438 -20.7792
ltibia 26.508
lfoot -13.2895 -9.21751
ltoes -17.9055
